<svg width="46" height="46" fill="currentColor" viewBox="0 0 24 24" xmlns="http://www.w3.org/2000/svg">
  <path d="M6.931 15.639a.6.6 0 0 1 .35.771l-1.8 4.8a.6.6 0 0 1-1.122-.42l1.8-4.8a.6.6 0 0 1 .772-.351Zm3.6 0a.6.6 0 0 1 .35.771l-1.8 4.8a.6.6 0 0 1-1.122-.42l1.8-4.8a.599.599 0 0 1 .772-.351Zm3.6 0a.6.6 0 0 1 .35.771l-1.8 4.8a.6.6 0 0 1-1.122-.42l1.8-4.8a.599.599 0 0 1 .772-.351Zm3.6 0a.6.6 0 0 1 .35.771l-1.8 4.8a.6.6 0 0 1-1.122-.42l1.8-4.8a.599.599 0 0 1 .772-.351Zm.275-8.406A6 6 0 0 0 6.607 6.028 4.2 4.2 0 1 0 6.12 14.4h11.4a3.6 3.6 0 0 0 .486-7.167Z"></path>
</svg>