<svg width="46" height="46" fill="currentColor" viewBox="0 0 24 24" xmlns="http://www.w3.org/2000/svg">
  <path d="M5.11 15.632a.6.6 0 0 1 .379.758l-.6 1.8a.6.6 0 1 1-1.138-.38l.6-1.8a.6.6 0 0 1 .759-.378Zm11.4 0a.6.6 0 0 1 .379.758l-.6 1.8a.6.6 0 0 1-1.138-.38l.6-1.8a.6.6 0 0 1 .759-.378Zm-9 1.8a.6.6 0 0 1 .379.758l-.6 1.8a.6.6 0 1 1-1.138-.38l.6-1.8a.6.6 0 0 1 .759-.378Zm11.4 0a.6.6 0 0 1 .379.758l-.6 1.8a.6.6 0 0 1-1.138-.38l.6-1.8a.6.6 0 0 1 .759-.378Zm-8.526-1.5a.6.6 0 0 1 .536-.332h1.2a.6.6 0 0 1 .569.79l-.336 1.01h.967a.6.6 0 0 1 .468.975l-2.4 3a.6.6 0 0 1-1.05-.52l.414-1.654H9.72a.598.598 0 0 1-.536-.87l1.2-2.4Zm7.622-8.7A6 6 0 0 0 6.607 6.029 4.2 4.2 0 1 0 6.12 14.4h11.4a3.6 3.6 0 0 0 .486-7.167Z"></path>
</svg>