<svg width="46" height="46" fill="currentColor" viewBox="0 0 24 24" xmlns="http://www.w3.org/2000/svg">
  <path d="M16.647 15.12a5.4 5.4 0 0 0-10.464-1.188 3.6 3.6 0 0 0 .297 7.188h10.2a3 3 0 1 0 0-6h-.033Z"></path>
  <path d="M15.48 3.72a.6.6 0 0 0-1.2 0v1.2a.6.6 0 1 0 1.2 0v-1.2Zm4.492 2.357a.6.6 0 1 0-.849-.848l-.85.848a.6.6 0 1 0 .85.85l.849-.85Zm-9.335-.848a.6.6 0 0 0-.848.848l.848.85a.6.6 0 1 0 .85-.85l-.85-.848Zm2.08 4.048a2.401 2.401 0 1 1 3.956 2.638c.239.337.446.698.62 1.078a3.6 3.6 0 1 0-5.809-3.87 6.62 6.62 0 0 1 1.234.154Zm5.382 4.89c.72.257 1.35.707 1.826 1.286a.6.6 0 0 0 .047-.89l-.849-.85a.6.6 0 0 0-1.024.453ZM20.28 9.72a.6.6 0 1 0 0 1.2h1.2a.6.6 0 1 0 0-1.2h-1.2Z"></path>
</svg>