<svg width="46" height="46" fill="currentColor" viewBox="0 0 24 24" xmlns="http://www.w3.org/2000/svg">
  <path d="M6.91 16.35a.6.6 0 0 1 .379.76l-.6 1.8a.6.6 0 0 1-1.138-.38l.6-1.8a.6.6 0 0 1 .759-.38Zm7.2 0a.601.601 0 0 1 .379.76l-.6 1.8a.6.6 0 0 1-1.138-.38l.6-1.8a.6.6 0 0 1 .759-.38Zm-4.2 1.8a.601.601 0 0 1 .379.76l-.6 1.8a.6.6 0 0 1-1.138-.38l.6-1.8a.6.6 0 0 1 .759-.38Zm7.2 0a.601.601 0 0 1 .379.76l-.6 1.8a.598.598 0 0 1-.973.281.6.6 0 0 1-.165-.66l.6-1.8a.6.6 0 0 1 .759-.38Zm.896-10.197A6.002 6.002 0 0 0 6.607 6.748a4.2 4.2 0 1 0-.487 8.372h11.4a3.6 3.6 0 0 0 .486-7.167Z"></path>
</svg>