<svg width="46" height="46" fill="currentColor" viewBox="0 0 24 24" xmlns="http://www.w3.org/2000/svg">
  <path d="M5.07 15.72a.3.3 0 0 1 .3.3v.684l.601-.345a.3.3 0 0 1 .298.521l-.594.34.594.34a.3.3 0 0 1-.298.52l-.6-.343v.683a.3.3 0 0 1-.6 0v-.684l-.602.344a.3.3 0 0 1-.298-.52l.594-.34-.594-.34a.3.3 0 0 1 .298-.52l.601.343v-.683a.3.3 0 0 1 .3-.3Zm3.3 2.4a.3.3 0 0 1 .3.3v.684l.6-.345a.3.3 0 1 1 .299.521l-.594.34.594.34a.3.3 0 0 1-.298.52l-.6-.343v.683a.3.3 0 0 1-.6 0v-.684l-.602.344a.3.3 0 0 1-.298-.52l.594-.34-.594-.34a.3.3 0 0 1 .298-.52l.601.343v-.683a.3.3 0 0 1 .3-.3Zm6.6 0a.3.3 0 0 1 .3.3v.684l.6-.345a.3.3 0 0 1 .447.222.3.3 0 0 1-.148.3l-.594.339.594.34a.3.3 0 0 1-.298.52l-.6-.343v.683a.3.3 0 1 1-.6 0v-.684l-.602.344a.3.3 0 0 1-.298-.52l.594-.34-.594-.34a.3.3 0 0 1 .298-.52l.601.343v-.683a.3.3 0 0 1 .3-.3Zm-3.3-2.4a.3.3 0 0 1 .3.3v.684l.6-.345a.3.3 0 0 1 .299.521l-.594.34.594.34a.3.3 0 0 1-.298.52l-.6-.343v.683a.3.3 0 1 1-.6 0v-.684l-.602.344a.3.3 0 0 1-.298-.52l.594-.34-.594-.34a.3.3 0 0 1 .298-.52l.601.343v-.683a.3.3 0 0 1 .3-.3Zm6.6 0a.3.3 0 0 1 .3.3v.684l.6-.345a.3.3 0 0 1 .299.521l-.594.34.594.34a.3.3 0 0 1-.298.52l-.6-.343v.683a.3.3 0 1 1-.6 0v-.684l-.602.344a.3.3 0 1 1-.298-.52l.594-.34-.594-.34a.3.3 0 0 1 .298-.52l.601.343v-.683a.3.3 0 0 1 .3-.3Zm-.264-8.668A6 6 0 0 0 6.607 5.847a4.2 4.2 0 1 0-.487 8.373h11.4a3.6 3.6 0 0 0 .486-7.168Z"></path>
</svg>