<svg width="46" height="46" fill="currentColor" viewBox="0 0 24 24" xmlns="http://www.w3.org/2000/svg">
  <path d="m20.994 14.684.903-.498-.998-1.805-.902.498a6.254 6.254 0 0 0-1.807 1.505L14.062 12l4.129-2.384a6.252 6.252 0 0 0 1.806 1.505l.903.498.997-1.805-.902-.499a4.186 4.186 0 0 1-.981-.75L22.5 7.127l-1.031-1.783-2.485 1.433a4.174 4.174 0 0 1-.16-1.226l.02-1.03-2.063-.04-.02 1.032c-.014.79.121 1.575.399 2.315l-4.129 2.386V5.446a6.258 6.258 0 0 0 2.206-.812l.883-.532-1.064-1.767-.883.532c-.355.213-.74.373-1.142.474V.75H10.97v2.59c-.402-.1-.787-.26-1.142-.473l-.883-.532L7.88 4.102l.883.532a6.258 6.258 0 0 0 2.206.812v4.768L6.84 7.828c.279-.74.414-1.526.4-2.317L7.221 4.48l-2.062.038.019 1.032c.008.414-.047.827-.16 1.225L2.53 5.344 1.5 7.13l2.487 1.436a4.21 4.21 0 0 1-.981.75l-.903.498.998 1.805.902-.498A6.253 6.253 0 0 0 5.81 9.616L9.938 12l-4.129 2.384a6.253 6.253 0 0 0-1.806-1.505l-.902-.498-.998 1.805.903.498c.362.2.693.453.98.75L1.5 16.875l1.031 1.786 2.487-1.436c.114.398.168.812.16 1.226l-.019 1.031 2.063.039.019-1.032a6.263 6.263 0 0 0-.4-2.317l4.128-2.386v4.768a6.258 6.258 0 0 0-2.206.812l-.883.532 1.064 1.767.883-.532c.355-.213.74-.373 1.142-.474v2.591h2.062v-2.59c.402.1.787.26 1.142.473l.883.532 1.064-1.767-.883-.532a6.258 6.258 0 0 0-2.206-.812v-4.768l4.129 2.386a6.264 6.264 0 0 0-.4 2.317l.019 1.031 2.062-.038-.019-1.031a4.174 4.174 0 0 1 .162-1.228l2.485 1.436 1.031-1.784-2.484-1.439c.287-.297.617-.55.978-.752Z"></path>
</svg>